<?xml version="1.0" encoding="utf-8"?>
<!-- Generator: Adobe Illustrator 19.2.0, SVG Export Plug-In . SVG Version: 6.00 Build 0)  -->
<svg version="1.1" id="Layer_1" xmlns="http://www.w3.org/2000/svg" xmlns:xlink="http://www.w3.org/1999/xlink" x="0px" y="0px"
	 viewBox="0 0 26.9 27.3" style="enable-background:new 0 0 26.9 27.3;" xml:space="preserve">
<style type="text/css">
	.st0{fill:#FFFFFF;}
	.st1{fill:#143965;}
	.st2{fill:#CDD8E8;}
	.st3{fill:#DDDDDD;}
	.st4{fill:#E2CA80;}
	.st5{fill:#143A68;}
	.st6{fill:#003D66;}
	.st7{fill:#E5CA87;}
</style>
<path class="st0" d="M13.6,0.3c-7.4,0-13.3,6-13.3,13.3c0,7.4,6,13.3,13.3,13.3s13.3-6,13.3-13.3S21,0.3,13.6,0.3z M17,13.6h-2.2v8
	h-3v-8h-2v-2.8h2V9.2c0-2.2,0.6-3.6,3.3-3.6h2.2v2.8h-1.4c-1,0-1.1,0.4-1.1,1.1v1.4h2.5L17,13.6z"/>
<g>
	<g>
		<path class="st1" d="M634.6,270.9c-1.5,0.5-1.6,1.1-0.7,0.9c2-0.4,5.3-2.1,8.6-4.8c3.5-3,7-7.1,10-12.1c3.2-5.4,5.8-10.9,8.3-15
			c1.5-2.5,2.9-4.6,3.8-5.9c0.8-0.8,0.7-1-0.5-0.2c-3,2.2-7.6,8.4-10.4,13.1c-6.9,0-8.9,2.1-8.9,4.1c0,1.2,0.8,2.2,1.7,2.2
			c0-5,5.4-5.1,6.6-5.1C651.1,252.4,641.1,268.1,634.6,270.9z M664.1,248.8c-0.3,0.8-0.5,3,0.2,3c0.3,0,0.1-0.6,0.6-1.8
			c0.7-1.5,2.1-2.2,4.7-4c1.1-0.8,0.6-2-0.5-2c-2.3,0-3.3,3.6-6,3.6c-0.7-0.1-1.7-0.2-2.2-0.3c1.7-4.3,6-13,10-16.5
			c1.7,0.7,7.4,3.5,11.4,3.5c9.8,0,11.1-9.9,0-9.9c-4,0-7.8,1.5-11,4.1c-4.1-1.7-12.1-6.7-20.7-6.7c-10.4,0-17,6.6-17,13.6
			c0,5.7,4.9,9.7,10.4,9.7c8.2,0,9.4-5.9,9.4-6.6c0-0.4-0.1-1.2-0.5-1.5c-0.2-0.1-0.4-0.1-0.4,0.1c0,2.2-4.3,6.8-9.5,6.8
			c-12,0-7.1-21.1,6.1-21.1c7.3,0,15,4.8,20.5,7.3c-3.5,3.7-7.3,8.9-12.7,19.8c-7.5,14.8-17.3,23.9-28.2,23.9
			c-5.9,0-12.1-3.8-12.1-13.3c0-16,21.2-20.4,21.2-4c0,6.7-4.7,10.2-8.5,10.3c-4.4,0-5.3-2.7-5.3-5.3c0-5.4,2.7-6.4,1.4-6.4
			c-4.8,0-5.8,12.6,4.6,12.6c6.7,0,10.7-5.8,10.8-11.6c0.1-5.4-3.4-10.7-11.8-10.7c-10.3,0-15.7,7.5-15.6,14.9
			c0,7.3,5.2,14.6,16.1,14.6c8.7,0,14.4-3.7,19.2-8.3c5.4-5,8.7-11.5,11.5-18C661.4,248.8,663.4,249,664.1,248.8z M682.2,225.4
			c8.2,0,8.5,7.3,0.7,7.3c-4,0-8-2.3-10.4-3.3C675.1,227,678.6,225.4,682.2,225.4z M689.5,246.3c0,1,0.8,1.9,2,1.9
			c1,0,1.9-0.8,1.9-1.9c0-1.1-0.8-2-1.9-2C690.3,244.3,689.5,245.1,689.5,246.3z M780.6,245.3c0,0,2-2.9,3.1-4.7
			c0.2-0.3,0.4-0.5,0-0.5c0,0,0,0-0.2,0c-2.6,0-5.7,5.2-5.7,5.2l-34.2,0.1l1.6,1.6c0,0,28.6-0.6,32-0.6c-1.1,1.7-2.6,3.7-3.8,5.5
			c-3.4,4.9-6.3,8.6-9.5,10.7c-2.5,1.7-3.5,1-2.3-1.2c1.1-2.4,4.2-5.7,4.2-8.2c0-1.1-0.4-2.6-2.4-2.6c-3.1,0-6.2,3.3-6.7,3.7
			l2.4-3.6h-3.5c-0.2,0.3-0.5,0.7-0.7,1c-1.7,2.4-6.8,6.3-8.5,1.5c-0.4-1.6-1.5-3-3.3-3c-3.2,0-5.8,1.8-7.9,4.6
			c-0.1,0.2-6,8.8-9.4,8.8c-1.4,0-0.2-1.7,0.4-2.7c2.3-3.7,4.1-6,4-8c0-1.5-0.7-2.3-2.6-2.3c-3,0-5.6,2.9-6.1,3.5c0,0,1.7-3.5-2-3.5
			c-1.5,0-3.7,0.7-6.6,3.5l2.4-3.4h-3.6l-1.5,2.1c-0.9,1.5-2.7,1.8-3.4,2c1.6-1,1.9-4.4-1.4-4.4c-1.5,0-4.3,1.5-6.9,4.1v-0.1
			l2.4-3.8h-3.5c0,0-0.7,1.1-1.9,2.8c-2.9,4.5-8.6,10.2-11.1,10.2c-1.2,0-1.5-1.8,0.4-4.4c2.4-3.6,5.7-8.6,5.7-8.6H687
			c0,0-1.5,2.2-3.2,4.8c-2.4,3.6-5.3,8.2-8.3,8.2c-1.8,0-0.9-2.8,0.4-4.8c1.8-2.8,5.4-8.2,5.4-8.2h-3.5c0,0-1.2,1.8-1.8,2.6
			c0-1.9-1.1-2.7-3.3-2.7c-8.4,0-13.7,14-6.6,14c3.2,0.1,5.8-3.4,6.2-4.2c0.1,0,0.1-0.1,0.1-0.1c-0.2,2,0.7,4.3,3,4.3
			c3.1,0,6.3-4.6,6.3-4.6c-0.4,2.1,0.2,4.6,2.6,4.6c2.7,0,7.1-5,7.4-5.2c-1.9,2.8-3.4,5.1-3.4,5.1h3.5c0,0,0.7-1.1,1.9-2.8
			c4.3-6.3,8.6-10.5,11.8-10.6c-0.6,0.2-1.9,0.9-1.9,2.5c0,1.5,0.9,2,2,2c1.2,0,2.8-0.6,3.2-0.8l-6.6,9.8h3.5c0,0,2.5-3.6,3.7-5.5
			c3.1-4.3,7-7.7,9.3-7.7c1.5,0,0.2,1.9-0.3,2.6c-0.6,0.9-7.1,10.6-7.1,10.6h3.5c2-2.8,1.9-2.8,2.8-4.2c2.1-3.2,3.1-5,5.8-7.3
			c1.4-1,2.5-1.7,3.4-1.7c0.5,0,0.6,0.4,0.6,0.7c0,2-5.3,6.6-5.3,9.6c0,1.9,1.4,2.9,2.7,2.9c2.7,0,5.4-2.5,8.1-5.9
			c-0.9,2.8-0.1,6.3,3.4,6.3c4.2,0,9.4-6,9.7-9.8c1.7,2,4.9,0.9,6.6-0.5c-0.1,0.2-6.6,9.9-6.6,9.9l3.5-0.1c0,0,2.3-3.3,4.7-6.6
			c1.2-1.7,2.9-3.6,5.7-5.5c1-0.6,1.8-1,2.3-1c3.2,0-4.8,6.6-4.8,10.7c0,1.5,1,2.6,2.9,2.6c3.6,0,7.2-4.6,8.1-5.6
			c-3.1,4.1-8.5,14.4-0.6,14.4c0.8,0,1.7-0.3,2.2-0.7c0.3-0.4-0.7-0.9-1.2-1.1c-4.2-1.6,0-8.2,1.7-11.2c1-1.8,2.9-4.7,3.3-5.2
			c2.8-4.3,5.9-8.8,5.9-8.8l9.3-0.3v-0.6h-8.4V245.3z M666.3,263.5c-4.3,0,3.5-12,7.1-12C677.8,251.6,670.2,263.5,666.3,263.5z
			 M741.7,259c-2.2,3.3-5.1,5.5-6.2,4.7c-1.1-0.7-0.1-4.3,2.1-7.5c2.2-3.3,5-5.5,6.1-4.7C744.9,252.2,743.8,255.7,741.7,259z
			 M659.1,283.5h-0.4c-0.2-0.1-0.3-0.2-0.3-0.5c-0.1-0.3-0.1-0.9-0.1-1.7v-1.5c0-1.2,0-1.5,0.1-1.8c0-0.3,0-0.4,0.3-0.4
			c0.1,0,0.1-0.1,0.2-0.1c0.1,0,0.2,0,0.2,0c0-0.1-0.1-0.1-0.2-0.1h-2.4c-0.1,0-0.2,0-0.2,0.1c0,0,0.1,0,0.2,0
			c0.1,0,0.2,0.1,0.3,0.1c0.3,0,0.3,0.1,0.4,0.4v1.9c0,0.1,0,0.1-0.1,0.1h-3.3c0,0-0.1,0-0.1-0.1v-0.1c0-1.2,0-1.5,0.1-1.8
			c0-0.3,0-0.4,0.3-0.4c0.1,0,0.2-0.1,0.2-0.1c0.1,0,0.2,0,0.2,0c0-0.1-0.1-0.1-0.2-0.1h-2.4c-0.1,0-0.2,0-0.2,0.1c0,0,0.1,0,0.2,0
			c0.1,0,0.2,0.1,0.3,0.1c0.3,0,0.4,0.1,0.4,0.4v3.2c0,0.7,0,1.4-0.1,1.7c0,0.3,0,0.4-0.2,0.5H652c-0.1,0-0.1,0-0.1,0.1
			c0,0,0,0,0.1,0h2.5c0.1,0,0.2,0,0.2,0c0-0.1-0.1-0.1-0.2-0.1h-0.4c-0.2-0.1-0.3-0.2-0.3-0.5c-0.1-0.3-0.1-0.9-0.1-1.7v-0.6
			c0-0.1,0.1-0.1,0.1-0.1h3.3c0.1,0,0.1,0,0.1,0.1v0.7c0,0.7,0,1.4-0.1,1.7c0,0.3,0,0.4-0.2,0.5h-0.3c-0.1,0-0.1,0-0.1,0.1
			c0,0,0,0,0.1,0h2.5c0.1,0,0.2,0,0.2,0C659.3,283.5,659.2,283.5,659.1,283.5z M664.5,277.4c-2.6,0-3.6,1.8-3.6,3.2
			c0,1.5,1,3.1,3.6,3.1c2.2,0,3.6-1.5,3.6-3.3C668.1,278.5,666.8,277.4,664.5,277.4z M664.8,283.3c-1.7,0-2.7-1.2-2.7-3
			c0-2,1.1-2.5,2.2-2.5c1.5,0,2.6,1.1,2.6,2.9C666.9,283.1,665.4,283.3,664.8,283.3z M675.3,277.4c-0.1,0-0.3,0.1-0.8,0.1h-4.4
			c-0.2,0-0.3-0.1-0.4-0.1c0,0,0,0-0.1,0.1c0,0.1-0.1,0.8-0.1,0.9s0,0.2,0,0.2c0.1,0,0.1-0.1,0.1-0.1c0-0.1,0.1-0.2,0.2-0.3
			c0.1-0.2,0.3-0.2,0.8-0.2l1.4-0.1v3.4c0,0.7,0,1.4-0.1,1.7c0,0.3-0.1,0.4-0.2,0.5h-0.3c-0.1,0-0.2,0-0.2,0.1c0,0,0.1,0,0.2,0h2.5
			c0.1,0,0.2,0,0.2,0c0-0.1-0.1-0.1-0.2-0.1h-0.4c-0.3-0.1-0.3-0.2-0.3-0.5c-0.1-0.3-0.1-0.9-0.1-1.7v-3.4l1.1,0.1
			c0.7,0,1,0.2,1,0.4v0.1c0,0.1,0,0.1,0.1,0.1c0,0,0.1,0,0.1-0.1v-0.9C675.4,277.5,675.4,277.4,675.3,277.4z M681.3,282.4
			c-0.1,0-0.1,0.1-0.1,0.2c-0.1,0.3-0.2,0.4-0.4,0.5s-0.6,0.1-0.8,0.1c-0.8,0-1-0.1-1-0.6v-2c0,0,0,0,0.1,0h1.2
			c0.3,0,0.4,0.1,0.4,0.3c0.1,0.1,0.1,0.2,0.1,0.3c0.1,0,0.1,0,0.1-0.1s0-0.4,0.1-0.5c0-0.4,0-0.6,0-0.6c0-0.1,0-0.1,0-0.1
			c-0.1,0-0.1,0.1-0.2,0.1c0,0.1-0.2,0.1-0.4,0.2H679c-0.1,0-0.1-0.1-0.1-0.1V278c0-0.1,0-0.1,0.1-0.1c0.1,0,1,0,1.2,0.1
			c0.4,0,0.5,0.1,0.5,0.2c0.1,0.1,0.1,0.3,0.1,0.3c0,0.1,0,0.1,0.1,0.1c0,0,0,0,0-0.1c0.1-0.1,0.1-0.4,0.1-0.5
			c0-0.3,0.1-0.4,0.1-0.5c0,0,0-0.1-0.1-0.1l-0.1,0.1h-3.8c-0.2,0-0.2,0-0.2,0.1c0,0,0,0,0.1,0c0.1,0,0.3,0.1,0.4,0.1
			c0.2,0,0.3,0.1,0.3,0.4v4.9c0,0.3-0.1,0.4-0.2,0.5h-0.4c-0.1,0-0.1,0-0.1,0.1c0,0,0.1,0,0.2,0h1c0.5,0,1.1,0.1,2.5,0.1
			c0.3,0,0.4,0,0.5-0.2c0-0.2,0.1-0.7,0.1-0.9C681.4,282.5,681.4,282.4,681.3,282.4z M688.1,282.4c-0.1,0-0.1,0.1-0.1,0.1
			c0,0.2-0.1,0.4-0.2,0.5c-0.2,0.2-0.6,0.2-1,0.2c-0.7,0-0.9,0-1-0.2c-0.2-0.1-0.2-0.6-0.2-1.7v-3.2c0-0.3,0.1-0.4,0.3-0.4
			c0.1,0,0.2-0.1,0.3-0.1c0.1,0,0.2,0,0.2,0c0-0.1-0.1-0.1-0.2-0.1h-2.4c-0.1,0-0.2,0-0.2,0.1c0,0,0.1,0,0.2,0s0.2,0.1,0.2,0.1
			c0.3,0,0.4,0.1,0.4,0.4v4.9c-0.1,0.3-0.1,0.4-0.3,0.5c0,0-0.1,0-0.3,0c-0.1,0-0.1,0-0.1,0.1c0,0,0.1,0,0.2,0h1
			c0.7,0,1.4,0.1,2.6,0.1c0.4,0,0.5-0.1,0.5-0.3c0.1-0.2,0.2-0.8,0.2-0.9S688.1,282.4,688.1,282.4z M692.4,280l-0.2-0.2
			c-0.7-0.5-0.9-0.8-0.9-1.1c0-0.5,0.3-0.8,1-0.8c0.5,0,0.8,0.2,0.9,0.3c0.2,0.2,0.2,0.5,0.2,0.6c0,0.1,0,0.1,0.1,0.1
			c0.1,0,0.1-0.1,0.1-0.2v-1c0,0,0-0.1-0.1-0.1c-0.2,0-0.6-0.1-1.1-0.1c-1.2,0-2.1,0.6-2.1,1.6c0,0.6,0.3,1.2,1.4,1.9l0.4,0.3
			c0.7,0.5,0.8,0.9,0.8,1.4c0,0.4-0.4,0.9-1.1,0.9c-0.6,0-1.1-0.2-1.2-0.8c-0.1-0.2-0.1-0.3-0.1-0.4c0-0.1,0-0.2-0.1-0.2
			c-0.1,0-0.1,0.1-0.1,0.2c0,0.2-0.1,0.6-0.1,1.1c0,0.1,0.1,0.2,0.2,0.2c0.4,0.2,0.8,0.2,1.2,0.2c0.5,0,1,0,1.5-0.3
			c0.6-0.3,0.8-0.9,0.8-1.4C693.8,281.2,693.4,280.7,692.4,280z M706.6,283.5c-0.1,0-0.6-0.1-0.9-0.3c-0.2-0.1-0.6-0.3-1.2-0.8
			c0.5-0.5,0.9-1.2,0.9-1.9c0-0.1-0.1-0.2-0.3-0.2h-1c-0.1,0-0.2,0-0.2,0.1h0.1c0.2,0,0.3,0,0.5,0.1c0.1,0.1,0.1,0.3,0.1,0.4
			c0,0.5-0.2,1-0.4,1.2c-0.2-0.1-1.2-1-1.6-1.4c-0.7-0.7-1.5-1.4-1.5-2.2c0-0.6,0.6-0.9,0.9-0.9c0.5,0,0.8,0.2,1,0.4
			c0.1,0.2,0.2,0.4,0.2,0.7c0,0.1,0,0.1,0.1,0.1c0,0,0,0,0.1-0.1c0-0.2,0.1-0.8,0.1-1c0-0.1,0-0.2-0.2-0.2c-0.2-0.1-0.6-0.2-1-0.2
			c-1.6,0-2.2,0.8-2.2,1.5c0,0.4,0.1,0.7,0.5,1.2c-0.5,0.2-1.5,0.9-1.5,1.9c0,0.7,0.5,1.8,2.4,1.8c1.2,0,1.9-0.4,2.1-0.7
			c0.8,0.5,1.1,0.6,2.1,0.6h0.7c0.2,0,0.2,0,0.2,0C706.7,283.5,706.7,283.5,706.6,283.5z M701.9,283.2c-0.9,0-1.7-0.6-1.7-1.7
			c0-0.6,0.3-1,0.6-1.2c0.1,0.2,0.7,0.8,0.9,1c0.2,0.2,1,1,1.6,1.5C703.2,282.9,702.7,283.2,701.9,283.2z M717.3,283.5H717
			c-0.1-0.1-0.5-0.1-0.9-0.6c-0.5-0.5-1.1-1.2-2-2.1c0.9-0.7,1.2-1.2,1.2-1.9c0-0.5-0.4-0.9-0.6-1.1c-0.5-0.2-1-0.3-1.7-0.3h-2.4
			c-0.2,0-0.2,0-0.2,0.1c0,0,0,0,0.1,0c0.1,0,0.3,0.1,0.4,0.1c0.2,0,0.3,0.1,0.3,0.4v4.9c0,0.3-0.1,0.4-0.3,0.5c0,0-0.1,0-0.3,0
			c-0.1,0-0.1,0-0.1,0.1c0,0,0.1,0,0.2,0h2.4c0.1,0,0.1,0,0.1,0c0-0.1,0-0.1-0.1-0.1h-0.4c-0.2-0.1-0.3-0.2-0.3-0.5
			c-0.1-0.3-0.1-0.9-0.1-1.8v-0.1h0.8c0.1,0,0.1,0,0.2,0c0.1,0.2,0.5,0.7,0.8,1.1c0.5,0.6,0.8,1,1.2,1.2c0.2,0.1,0.4,0.1,0.9,0.1
			h0.8c0.1,0,0.2,0,0.2,0C717.4,283.5,717.3,283.5,717.3,283.5z M713.2,280.7c-0.3,0-0.5,0-0.7-0.1c-0.1,0-0.1,0-0.1-0.1V278
			c0,0,0-0.1,0.1-0.1h0.5c0.5,0,1.4,0.3,1.4,1.5c0,0.7-0.3,1-0.5,1.2C713.6,280.7,713.5,280.7,713.2,280.7z M722.4,282.6
			c-0.1,0.3-0.2,0.4-0.4,0.5s-0.6,0.1-0.8,0.1c-0.9,0-1-0.1-1-0.6v-2h1.2c0.3,0,0.5,0.1,0.5,0.3v0.3h0.1c0.1,0,0.1,0,0.1-0.1v-0.5
			c0-0.4,0.1-0.6,0.1-0.6c0-0.1,0-0.1-0.1-0.1c0,0,0,0.1-0.1,0.1c-0.1,0.1-0.2,0.1-0.4,0.2h-1.5V278c0-0.1,0-0.1,0-0.1
			c0.2,0,1.1,0,1.2,0.1c0.5,0,0.5,0.1,0.6,0.2c0,0.1,0.1,0.3,0.1,0.3c0,0.1,0,0.1,0,0.1c0.1,0,0.1,0,0.1-0.1s0.1-0.4,0.1-0.5v-0.6
			c-0.1,0-0.1,0.1-0.2,0.1c0,0-0.2,0-0.3,0h-3.5c-0.1,0-0.1,0-0.1,0.1c0,0,0,0,0.1,0c0.1,0,0.3,0.1,0.3,0.1c0.3,0,0.4,0.1,0.4,0.4
			v4.9c-0.1,0.3-0.1,0.4-0.3,0.5h-0.3c-0.1,0-0.1,0-0.1,0.1c0,0,0,0,0.1,0h1.1c0.5,0,1.1,0.1,2.5,0.1c0.3,0,0.4,0,0.4-0.2
			C722.4,283.3,722.4,282.8,722.4,282.6c0-0.1,0-0.2,0-0.2S722.4,282.5,722.4,282.6z M727.5,280l-0.2-0.2c-0.7-0.5-0.9-0.8-0.9-1.1
			c0-0.5,0.3-0.8,1-0.8c0.5,0,0.8,0.2,0.9,0.3c0.2,0.2,0.2,0.5,0.2,0.6c0,0.1,0,0.1,0.1,0.1c0.1,0,0.1-0.1,0.1-0.2v-1
			c0,0,0-0.1-0.1-0.1c-0.2,0-0.6-0.1-1.1-0.1c-1.2,0-2.1,0.6-2.1,1.6c0,0.6,0.3,1.2,1.4,1.9l0.4,0.3c0.7,0.5,0.8,0.9,0.8,1.4
			c0,0.4-0.4,0.9-1.1,0.9c-0.6,0-1.1-0.2-1.4-0.8v-0.4c0-0.1,0-0.2-0.1-0.2c-0.1,0-0.1,0.1-0.1,0.2c0,0.2-0.1,0.6-0.1,1.1
			c0,0.1,0.1,0.2,0.2,0.2c0.4,0.2,0.7,0.2,1.2,0.2s1,0,1.5-0.3c0.6-0.3,0.8-0.9,0.8-1.4C729,281.2,728.6,280.7,727.5,280z
			 M735.1,277.4c-2.7,0-3.6,1.8-3.6,3.2c0,1.5,0.9,3.1,3.5,3.1c2.2,0,3.6-1.5,3.6-3.3C738.6,278.5,737.3,277.4,735.1,277.4z
			 M735.3,283.3c-1.7,0-2.7-1.2-2.7-3c0-2,1.1-2.5,2.2-2.5c1.5,0,2.6,1.1,2.6,2.9C737.4,283.1,735.9,283.3,735.3,283.3z
			 M747.1,283.5c0,0-0.1,0-0.2,0c-0.1-0.1-0.5-0.1-0.9-0.6c-0.5-0.5-1.1-1.2-2-2.1c0.9-0.7,1.1-1.2,1.1-1.9c0-0.5-0.3-0.9-0.5-1.1
			c-0.5-0.2-1.1-0.3-1.7-0.3h-2.5c-0.1,0-0.1,0-0.1,0.1c0,0,0,0,0.1,0c0.1,0,0.3,0.1,0.3,0.1c0.3,0,0.4,0.1,0.4,0.4v4.9
			c-0.1,0.3-0.1,0.4-0.3,0.5c0,0-0.1,0-0.3,0c-0.1,0-0.1,0-0.1,0.1c0,0,0,0,0.2,0h2.3c0.1,0,0.2,0,0.2,0c0-0.1,0-0.1-0.1-0.1h-0.4
			c-0.3-0.1-0.3-0.2-0.3-0.5c-0.1-0.3-0.1-0.9-0.1-1.8v-0.1c0,0,0,0,0.1,0h0.7c0.1,0,0.1,0,0.2,0c0.1,0.2,0.5,0.7,0.8,1.1
			c0.5,0.6,0.8,1,1.2,1.2c0.2,0.1,0.4,0.1,0.9,0.1h0.8C747,283.5,747,283.5,747.1,283.5C747.2,283.5,747.2,283.5,747.1,283.5z
			 M743.5,280.6c-0.1,0.1-0.2,0.1-0.6,0.1c-0.2,0-0.4,0-0.6-0.1c-0.1,0-0.1,0-0.1-0.1V278c0,0,0-0.1,0.1-0.1h0.4
			c0.5,0,1.4,0.3,1.4,1.5C744,280.1,743.8,280.4,743.5,280.6z M752.9,277.4c-0.1,0-0.3,0.1-0.8,0.1h-4.4c-0.2,0-0.3-0.1-0.4-0.1
			c0,0-0.1,0-0.1,0.1s-0.2,0.8-0.2,0.9s0.1,0.2,0.1,0.2c0.1,0,0.1-0.1,0.1-0.1c0-0.1,0.1-0.2,0.2-0.3c0.1-0.2,0.3-0.2,0.8-0.2
			l1.2-0.1v5.1c0,0.3-0.1,0.4-0.3,0.5c0,0-0.1,0-0.3,0c-0.1,0-0.1,0-0.1,0.1c0,0,0.1,0,0.2,0h2.5c0.1,0,0.1,0,0.1,0
			c0-0.1,0-0.1-0.1-0.1H751c-0.3-0.1-0.3-0.2-0.4-0.5v-5.1l1.1,0.1c0.7,0,0.9,0.2,1,0.4v0.1c0,0.1,0,0.1,0.1,0.1c0,0,0,0,0-0.1
			c0-0.2,0.1-0.7,0.1-0.9C753,277.5,753,277.4,752.9,277.4z M756.8,280l-0.3-0.2c-0.7-0.5-0.9-0.8-0.9-1.1c0-0.5,0.4-0.8,1-0.8
			c0.6,0,0.8,0.2,1,0.3c0.1,0.2,0.2,0.5,0.2,0.6c0,0.1,0,0.1,0.1,0.1c0,0,0.1-0.1,0.1-0.2v-1c0,0,0-0.1-0.1-0.1
			c-0.2,0-0.6-0.1-1.1-0.1c-1.2,0-2.1,0.6-2.1,1.6c0,0.6,0.3,1.2,1.4,1.9l0.3,0.3c0.7,0.5,0.9,0.9,0.9,1.4c0,0.4-0.4,0.9-1.2,0.9
			c-0.5,0-1-0.2-1.2-0.8v-0.4c0-0.1-0.1-0.2-0.1-0.2c-0.1,0-0.1,0.1-0.1,0.2c0,0.2-0.1,0.6-0.1,1.1c0,0.1,0,0.2,0.2,0.2
			c0.3,0.2,0.7,0.2,1.2,0.2s0.9,0,1.5-0.3c0.6-0.3,0.8-0.9,0.8-1.4C758.3,281.2,757.9,280.7,756.8,280z"/>
	</g>
</g>
<g>
	<path class="st0" d="M-31.7,7.2h-8.1c-1.3,0-2.3,1.1-2.3,2.3v8.1c0,1.3,1.1,2.3,2.3,2.3h8.1c1.3,0,2.3-1.1,2.3-2.3v-8
		C-29.4,8.3-30.4,7.2-31.7,7.2z M-35.7,17.8c-2.3,0-4.2-1.9-4.2-4.2s1.9-4.2,4.2-4.2s4.2,1.9,4.2,4.2C-31.5,16-33.4,17.8-35.7,17.8z
		 M-31.4,10.3c-0.5,0-1-0.4-1-1c0-0.5,0.4-1,1-1c0.5,0,1,0.4,1,1C-30.4,9.9-30.9,10.3-31.4,10.3z M-35.7,11.2
		c-1.3,0-2.4,1.1-2.4,2.4S-37,16-35.7,16s2.4-1.1,2.4-2.4S-34.4,11.2-35.7,11.2z M-35.7,0c-7.5,0-13.6,6.1-13.6,13.6
		s6.1,13.6,13.6,13.6s13.6-6.1,13.6-13.6C-22.2,6.1-28.3,0-35.7,0z M-27.6,17.7c0,2.3-1.8,4.1-4.1,4.1h-8.1c-2.3,0-4.1-1.8-4.1-4.1
		V9.6c0-2.3,1.8-4.1,4.1-4.1h8.1c2.3,0,4.1,1.8,4.1,4.1V17.7z"/>
</g>
<rect x="573.9" y="121.8" class="st2" width="74.4" height="64.9"/>
<rect x="586.6" y="109.1" class="st3" width="49.1" height="77.7"/>
<rect x="567.6" y="182.8" class="st4" width="87" height="4"/>
<g>
	<rect x="590.8" y="115.1" class="st5" width="6.7" height="6.7"/>
	<rect x="602.1" y="115.1" class="st5" width="6.7" height="6.7"/>
	<rect x="613.4" y="115.1" class="st5" width="6.7" height="6.7"/>
	<rect x="624.7" y="115.1" class="st5" width="6.7" height="6.7"/>
	<rect x="590.8" y="127.1" class="st5" width="6.7" height="6.7"/>
	<rect x="602.1" y="127.1" class="st5" width="6.7" height="6.7"/>
	<rect x="613.4" y="127.1" class="st5" width="6.7" height="6.7"/>
	<rect x="624.7" y="127.1" class="st5" width="6.7" height="6.7"/>
	<rect x="590.8" y="139.1" class="st5" width="6.7" height="6.7"/>
	<rect x="602.1" y="139.1" class="st5" width="6.7" height="6.7"/>
	<rect x="613.4" y="139.1" class="st5" width="6.7" height="6.7"/>
	<rect x="624.7" y="139.1" class="st5" width="6.7" height="6.7"/>
	<rect x="590.8" y="151" class="st5" width="6.7" height="6.7"/>
	<rect x="602.1" y="151" class="st5" width="6.7" height="6.7"/>
	<rect x="613.4" y="151" class="st5" width="6.7" height="6.7"/>
	<rect x="624.7" y="151" class="st5" width="6.7" height="6.7"/>
	<rect x="590.8" y="163" class="st5" width="6.7" height="6.7"/>
	<rect x="602.1" y="163" class="st5" width="6.7" height="6.7"/>
	<rect x="613.4" y="163" class="st5" width="6.7" height="6.7"/>
	<rect x="624.7" y="163" class="st5" width="6.7" height="6.7"/>
</g>
<g>
	<polygon class="st4" points="611.1,89.1 613.7,94.5 619.7,95.3 615.4,99.5 616.4,105.4 611.1,102.6 605.8,105.4 606.8,99.5 
		602.5,95.3 608.5,94.5 	"/>
	<polygon class="st4" points="628.1,93.4 629.8,96.8 633.6,97.3 630.9,100 631.5,103.8 628.1,102 624.7,103.8 625.4,100 622.7,97.3 
		626.5,96.8 	"/>
	<polygon class="st4" points="640.9,97.2 642,99.4 644.4,99.7 642.6,101.4 643,103.8 640.9,102.7 638.8,103.8 639.2,101.4 
		637.5,99.7 639.9,99.4 	"/>
	<polygon class="st4" points="594.1,93.4 592.4,96.8 588.6,97.3 591.3,100 590.7,103.8 594.1,102 597.5,103.8 596.8,100 599.5,97.3 
		595.8,96.8 	"/>
	<polygon class="st4" points="581.3,97.2 580.2,99.4 577.9,99.7 579.6,101.4 579.2,103.8 581.3,102.7 583.4,103.8 583,101.4 
		584.7,99.7 582.3,99.4 	"/>
</g>
<rect x="602.1" y="173.3" class="st4" width="18" height="9.5"/>
<g>
	<rect x="577.6" y="127.1" class="st5" width="5.5" height="6"/>
	<rect x="577.6" y="138.2" class="st5" width="5.5" height="6"/>
	<rect x="577.6" y="149.3" class="st5" width="5.5" height="6"/>
	<rect x="577.6" y="160.3" class="st5" width="5.5" height="6"/>
	<rect x="577.6" y="171.5" class="st5" width="5.5" height="6"/>
	<rect x="639.1" y="127.1" class="st5" width="5.5" height="6"/>
	<rect x="639.1" y="138.2" class="st5" width="5.5" height="6"/>
	<rect x="639.1" y="149.3" class="st5" width="5.5" height="6"/>
	<rect x="639.1" y="160.3" class="st5" width="5.5" height="6"/>
	<rect x="639.1" y="171.5" class="st5" width="5.5" height="6"/>
</g>
<rect x="738" y="105.9" class="st3" width="46.8" height="81.1"/>
<rect x="722.8" y="146.5" class="st3" width="15.2" height="40.6"/>
<rect x="722.8" y="146.5" class="st2" width="15.2" height="5.5"/>
<g>
	<rect x="747.8" y="114.6" class="st6" width="8.8" height="8"/>
	<rect x="766.4" y="114.6" class="st6" width="8.8" height="8"/>
	<rect x="747.8" y="129.3" class="st6" width="8.8" height="8"/>
	<rect x="766.4" y="129.3" class="st6" width="8.8" height="8"/>
	<rect x="747.8" y="143.9" class="st6" width="8.8" height="8"/>
	<rect x="766.4" y="143.9" class="st6" width="8.8" height="8"/>
</g>
<rect x="755.2" y="168.3" class="st7" width="12.5" height="18.7"/>
</svg>
