<?xml version="1.0" encoding="utf-8"?>
<!-- Generator: Adobe Illustrator 19.2.0, SVG Export Plug-In . SVG Version: 6.00 Build 0)  -->
<svg version="1.1" id="Layer_1" xmlns="http://www.w3.org/2000/svg" xmlns:xlink="http://www.w3.org/1999/xlink" x="0px" y="0px"
	 viewBox="0 0 237.3 250.4" style="enable-background:new 0 0 237.3 250.4;" xml:space="preserve">
<style type="text/css">
	.st0{fill:#FFFFFF;}
	.st1{font-family:'MetroflexWideHeavy';}
	.st2{font-size:35.9067px;}
	.st3{letter-spacing:2;}
	.st4{font-family:'MetroflexWideLight';}
	.st5{font-size:9.3849px;}
</style>
<g>
	<g>
		<g>
			<path class="st0" d="M92.5,7.7c-10.8-4.5-21.3-2.3-29.7,6.1c-1.3,1.3-1.3,3.4,0,4.7l13.4,13.4c1.3,1.3,3.4,1.3,4.7,0l1-1v5.3
				c0,1.2,0.6,2.3,1.6,2.9l14.5,8.7c0.2,0.1,0.5,0.2,0.7,0.3c6.8,2.2,12.9,5.8,17.5,10.5c0.6,0.6,1.5,1,2.4,1c0.4,0,0.9-0.1,1.3-0.3
				c1.2-0.5,2.1-1.7,2.1-3.1C122,35.6,109.3,14.7,92.5,7.7z M101.2,41.9l-12.6-7.6V22.8c0-1.4-0.8-2.6-2.1-3.1
				c-1.2-0.5-2.7-0.2-3.6,0.7l-4.3,4.3L70,16.3c7.3-5.7,14.8-4.5,19.9-2.4c12.2,5,22.1,19.4,24.7,34.7
				C110.6,45.8,106,43.5,101.2,41.9z"/>
		</g>
	</g>
	<g>
		<g>
			<path class="st0" d="M121,53.9C107.1,40,84.5,35.2,67.2,42.3c-11.9,4.9-18.7,14.9-18.7,27.3c0,1,0.4,1.9,1.2,2.6
				c0.6,0.5,1.4,0.8,2.1,0.8c0.2,0,0.4,0,0.6-0.1l18.4-3.3c1-0.2,1.9-0.8,2.4-1.8l2.2-4.3l1.5,2.7c0.7,1.3,2.2,2,3.6,1.7l38.9-8.3
				c1.2-0.3,2.2-1.1,2.5-2.3C122.2,56.1,121.9,54.8,121,53.9z M81.5,60.8l-3.4-6.1c-0.6-1.1-1.8-1.8-3-1.7c-1.2,0-2.4,0.7-2.9,1.9
				l-4.3,8.5l-12.5,2.3c1.3-7.8,6.2-13.7,14.3-17.1c4.5-1.9,9.4-2.7,14.5-2.7c9.4,0,19.3,3.1,27.1,8.7L81.5,60.8z"/>
		</g>
	</g>
	<g>
		<g>
			<path class="st0" d="M174.5,13.8c-8.4-8.4-18.9-10.5-29.7-6.1c-16.8,7-29.5,27.8-29.5,48.5c0,1.4,0.8,2.6,2.1,3.1
				c0.4,0.2,0.8,0.3,1.3,0.3c0.9,0,1.7-0.3,2.4-1c4.7-4.7,10.7-8.3,17.5-10.5c0.2-0.1,0.5-0.2,0.7-0.3l14.6-8.7
				c1-0.6,1.6-1.7,1.6-2.9v-5.3l1,1c1.3,1.3,3.4,1.3,4.7,0l13.4-13.4C175.8,17.2,175.8,15.1,174.5,13.8z M158.8,24.8l-4.3-4.3
				c-1-1-2.4-1.2-3.6-0.7c-1.2,0.5-2.1,1.7-2.1,3.1v11.5l-12.6,7.6c-4.9,1.6-9.4,3.9-13.5,6.7c2.6-15.3,12.5-29.6,24.7-34.7
				c2.4-1,5.2-1.7,8.3-1.7c3.7,0,7.7,1.1,11.6,4.1L158.8,24.8z"/>
		</g>
	</g>
	<g>
		<g>
			<path class="st0" d="M170.1,42.3c-17.3-7.2-39.9-2.3-53.8,11.6c-0.9,0.9-1.2,2.1-0.8,3.3c0.3,1.2,1.3,2.1,2.5,2.3l38.9,8.3
				c1.4,0.3,2.9-0.4,3.6-1.7l1.5-2.7l2.2,4.3c0.5,0.9,1.4,1.6,2.4,1.8l18.4,3.3c0.2,0,0.4,0.1,0.6,0.1c0.8,0,1.5-0.3,2.1-0.8
				c0.8-0.6,1.2-1.6,1.2-2.6C188.8,57.2,182,47.2,170.1,42.3z M169.4,63.3l-4.3-8.5c-0.6-1.1-1.7-1.8-2.9-1.8c-1.3,0-2.4,0.6-3,1.7
				l-3.4,6.1L126,54.4c12-8.6,28.8-11.2,41.6-5.9c8.1,3.3,13,9.3,14.3,17.1L169.4,63.3z"/>
		</g>
	</g>
	<g>
		<g>
			<path class="st0" d="M135.4,149.6l-6.7-90.2c-0.1-1.8-1.7-3.3-3.6-3.1c-1.8,0.1-3.2,1.7-3.1,3.6l6.4,86.7h-19.5l6.4-86.7
				c0.1-1.8-1.2-3.4-3.1-3.6c-1.9-0.2-3.4,1.2-3.6,3.1l-6.7,90.2c-0.1,0.9,0.2,1.8,0.9,2.5c0.6,0.7,1.5,1.1,2.4,1.1H132
				c0.9,0,1.8-0.4,2.5-1.1C135.1,151.4,135.4,150.5,135.4,149.6z"/>
		</g>
	</g>
	<g>
		<g>
			<path class="st0" d="M128.7,126.5h-20.1c-1.8,0-3.3,1.5-3.3,3.3c0,1.8,1.5,3.3,3.3,3.3h20.1c1.8,0,3.3-1.5,3.3-3.3
				C132,128,130.5,126.5,128.7,126.5z"/>
		</g>
	</g>
	<g>
		<g>
			<path class="st0" d="M125.3,106.4H112c-1.8,0-3.3,1.5-3.3,3.3s1.5,3.3,3.3,3.3h13.4c1.8,0,3.3-1.5,3.3-3.3
				C128.7,107.9,127.2,106.4,125.3,106.4z"/>
		</g>
	</g>
	<g>
		<g>
			<path class="st0" d="M125.3,86.4H112c-1.8,0-3.3,1.5-3.3,3.3s1.5,3.3,3.3,3.3h13.4c1.8,0,3.3-1.5,3.3-3.3S127.2,86.4,125.3,86.4z
				"/>
		</g>
	</g>
	<g>
		<g>
			<path class="st0" d="M125.3,66.3H112c-1.8,0-3.3,1.5-3.3,3.3c0,1.8,1.5,3.3,3.3,3.3h13.4c1.8,0,3.3-1.5,3.3-3.3
				C128.7,67.8,127.2,66.3,125.3,66.3z"/>
		</g>
	</g>
	<text transform="matrix(1 0 0 1 83.1123 190.0854)" class="st0 st1 st2 st3">ISLA</text>
	<text transform="matrix(1 0 0 1 54.8003 225.0962)" class="st0 st1 st2 st3">BONITA</text>
	<text transform="matrix(1 0 0 1 79.5518 243.0776)" class="st0 st4 st5">PLAYA LAS GATAS</text>
	<g>
		<path class="st0" d="M97,149.3l0-0.1c-3.7,0-6.1,0-10.4,0c1.3-2.8,2.5-5.6,3.5-8.3c3,0,5.1,0,7.5,0l0.3-4.3c-2,0-3.9,0-6.4,0
			c0.9-3,1.6-5.9,2-8.9c0.3,0.1,0.5,0.2,0.8,0.2c1.7,0,2.9,0,4.2,0l0.3-4.4c-1.3,0-2.6,0-4.3,0c-0.2,0-0.4,0-0.6,0.1
			c0.3-2.9,0.3-5.9,0.2-8.9c2.2,0,3.6,0,5.3,0l0.3-4.4c-2.1,0-3.6,0-6,0c-0.3-2.8-0.9-5.7-1.6-8.5c2.1,0,3.5,0,5.5,0
			c0.9,2.2,1.6,4.3,2.3,6.5l0.7-9.4c-0.8-1.8-1.6-3.5-2.5-5.3l2.9-0.2l0.3-4.3l-6.9,0.5c0.1-0.1,0.1-0.1,0.2-0.2
			c0.2-0.3,0.4-0.5,0.7-0.8c0.1-0.2,0.3-0.3,0.5-0.5c0.2-0.2,0.5-0.5,0.7-0.7c0.2-0.2,0.3-0.3,0.5-0.5c0.2-0.2,0.4-0.4,0.6-0.6
			c0.2-0.2,0.4-0.4,0.7-0.6c0.1-0.1,0.3-0.2,0.4-0.4c0.7-0.6,1.5-1.2,2.3-1.8c0,0,0,0,0,0c0.3-0.2,0.6-0.4,0.8-0.5l0.5-7.1l-3.9,4.2
			c-2,1.4-3.9,3-5.5,4.8c0,0,0,0,0,0c-0.4,0.5-0.8,0.9-1.2,1.4c-0.1,0.1-0.2,0.2-0.3,0.3c-0.8-6.5,0.5-13.4,3.4-18.8L89.6,69
			c-1.5,3.6-2.4,7.6-2.6,11.7c-2.8-3.9-6.4-7.2-10.3-9.6c-0.9-0.2-1.8-0.6-2.5-1.1c-0.9,1.3-2.2,2.3-3.7,2.7
			c6.5,2.6,12.6,8.4,16,15.4C86.4,88.1,86.2,88,86,88c-0.6-0.2-1.1-0.3-1.7-0.5c-0.1,0-0.1,0-0.2,0c-2.3-0.6-4.7-0.9-7.1-1l-8.9-2.3
			l-2-7c-0.2-0.8-1-1.4-1.8-1.5c-0.9-0.1-1.7,0.3-2.1,1.1l-1.9,3.4l-6.7-3.7c0.2-0.2,0.3-0.4,0.5-0.6l-2.7,0.5
			c-0.3,0.1-0.8,0.1-1.2,0.1c-0.5,0-1-0.1-1.5-0.2c-0.6,1-0.2,2.3,0.8,2.9l10.5,5.8c1,0.6,2.3,0.2,2.9-0.8l0.4-0.8l0.9,3.2
			c0.2,0.7,0.8,1.3,1.5,1.5c-3.4,1.1-6.6,2.7-9.4,4.9c-6.4,5.1-8.8,12.4-6.5,20c0.2,0.6,0.6,1.1,1.2,1.3c0.5,0.2,1,0.2,1.4,0.1
			c0.1,0,0.2-0.1,0.4-0.1l10.6-5.3c0.6-0.3,1-0.9,1.1-1.5l0.5-3l1.4,1.4c0.7,0.7,1.7,0.8,2.5,0.4l17.3-9.4
			c6.2,18.9,4.2,36.4-5.2,54.4c-0.3,0.6-0.4,1.1-0.2,1.5c0.2,0.4,0.6,0.6,1.2,0.6c6.3,0,9.7,0,15.6,0C97.2,152,96.9,150.7,97,149.3z
			 M85.2,92.5l-16.7,9l-3.1-3.1c-0.6-0.6-1.4-0.8-2.1-0.5c-0.8,0.2-1.3,0.9-1.5,1.7l-1.1,6l-7.2,3.6c-0.6-5,1.3-9.5,5.7-13
			c2.4-1.9,5.3-3.3,8.3-4.3c2.9-0.9,6.1-1.2,9.2-1.2c0,0,0.1,0,0.1,0c0.5,0,1,0,1.5,0.1c0.1,0,0.2,0,0.3,0c0.4,0,0.7,0.1,1.1,0.1
			c0.4,0,0.7,0.1,1.1,0.1c0.3,0,0.6,0.1,0.9,0.1c0.6,0.1,1.1,0.2,1.7,0.4c0.1,0,0.2,0.1,0.3,0.1c0.6,0.2,1.2,0.4,1.8,0.6
			C85.2,92.3,85.2,92.4,85.2,92.5z M91,94.2l3.1-0.2c0.6,1.2,1.3,2.5,1.8,3.7c-1.7,0-3.1,0-4.9,0c-0.3-1-0.7-2-1-3L91,94.2z"/>
	</g>
	<g>
		<path class="st0" d="M172.9,86.5l0.9-3.2l0.4,0.8c0.6,1,1.9,1.4,2.9,0.8l10.5-5.8c1-0.5,1.4-1.8,0.9-2.8c-0.4,0.1-0.7,0.1-1.1,0.1
			c-0.5,0-0.9,0-1.3-0.1l-3.1-0.6c0.2,0.2,0.4,0.5,0.6,0.7l-6.7,3.7l-1.9-3.4c-0.4-0.8-1.2-1.2-2.1-1.1c-0.9,0.1-1.6,0.7-1.8,1.5
			l-2,7l-8.9,2.3c-2.4,0.1-4.8,0.4-7.1,1c-0.1,0-0.1,0-0.2,0c-0.6,0.1-1.1,0.3-1.7,0.5c-0.2,0.1-0.4,0.1-0.5,0.2
			c3.4-7.1,9.6-12.9,16.2-15.5c-1.4-0.5-2.6-1.4-3.5-2.7c-0.9,0.7-2,1.1-3.2,1.2c-3.8,2.4-7.3,5.6-10.1,9.5
			c-0.2-4.1-1.2-8.2-2.7-11.8l-5.2-1.1c2.9,5.4,4.3,12.4,3.5,18.9c-0.1-0.1-0.2-0.2-0.3-0.3c-0.4-0.5-0.8-1-1.2-1.4c0,0,0,0,0,0
			c-1.7-1.8-3.5-3.4-5.5-4.8l-3.4-3.7l0.5,6.9c0.1,0.1,0.2,0.1,0.3,0.2c0,0,0,0,0,0c0.8,0.6,1.6,1.1,2.3,1.8
			c0.1,0.1,0.3,0.2,0.4,0.4c0.2,0.2,0.4,0.4,0.7,0.6c0.2,0.2,0.4,0.4,0.6,0.6c0.2,0.2,0.3,0.3,0.5,0.5c0.2,0.2,0.5,0.5,0.7,0.7
			c0.2,0.2,0.3,0.3,0.5,0.5c0.2,0.3,0.4,0.5,0.7,0.8c0.1,0.1,0.1,0.1,0.2,0.2l-6.5-0.5l0.3,4.3l2.5,0.2c-0.8,1.5-1.5,2.9-2.1,4.4
			l0.7,9.1c0.6-1.8,1.2-3.5,1.9-5.3c1.9,0,3.4,0,5.5,0c-0.7,2.9-1.3,5.7-1.6,8.5c-2.2,0-3.7,0-5.5,0l0.3,4.4c1.5,0,2.9,0,4.8,0
			c-0.2,3-0.1,5.9,0.2,8.9c-0.2-0.1-0.4-0.1-0.6-0.1c-1.5,0-2.7,0-3.8,0l0.3,4.4c1.1,0,2.2,0,3.7,0c0.3,0,0.6-0.1,0.8-0.2
			c0.5,3,1.1,5.9,2,8.9c-2.3,0-4.1,0-5.9,0l0.3,4.3c2.2,0,4.2,0,7,0c1,2.8,2.2,5.5,3.5,8.3c-4.1,0-6.5,0-9.9,0l0,0.2
			c0.1,1.3-0.2,2.7-0.9,3.8c5.6,0,9,0,15.2,0c0.6,0,1-0.2,1.2-0.6c0.2-0.4,0.1-1-0.2-1.5c-9.4-18.1-11.4-35.5-5.2-54.4l17.3,9.4
			c0.8,0.4,1.8,0.3,2.5-0.4l1.4-1.4l0.5,3c0.1,0.7,0.5,1.2,1.1,1.5l10.6,5.3c0.1,0.1,0.2,0.1,0.4,0.1c0.5,0.1,1,0.1,1.4-0.1
			c0.6-0.3,1-0.7,1.2-1.3c2.2-7.6-0.2-14.9-6.5-20c-2.7-2.2-5.9-3.8-9.4-4.9C172.1,87.7,172.7,87.2,172.9,86.5z M146.2,97.7
			c-1.8,0-3.1,0-4.9,0c0.6-1.2,1.2-2.5,1.8-3.7l3.1,0.2l0.9,0.5C146.8,95.7,146.5,96.7,146.2,97.7z M178.1,96.1
			c4.3,3.5,6.3,8,5.7,13l-7.2-3.6l-1.1-6c-0.1-0.8-0.7-1.4-1.5-1.7c-0.7-0.2-1.6,0-2.1,0.5l-3.1,3.1l-16.7-9c0-0.1,0-0.2-0.1-0.3
			c0.6-0.2,1.2-0.4,1.8-0.6c0.1,0,0.2-0.1,0.3-0.1c0.6-0.1,1.1-0.3,1.7-0.4c0.3-0.1,0.6-0.1,0.9-0.1c0.4-0.1,0.7-0.1,1.1-0.1
			c0.4,0,0.7-0.1,1.1-0.1c0.1,0,0.2,0,0.3,0c0.5,0,1-0.1,1.5-0.1c0,0,0.1,0,0.1,0c3.1-0.1,6.2,0.3,9.2,1.2
			C172.9,92.8,175.7,94.2,178.1,96.1z"/>
	</g>
	<path class="st0" d="M198.2,196.5c0,0-0.1-0.8-0.3-2.3c-0.1-0.7-0.3-1.6-0.5-2.6c-0.3-1-0.6-2.2-1.1-3.5c-1-2.5-2.5-5.5-4.7-8.5
		c-2.2-3-5.2-6-8.9-8.8c-3.6-2.8-7.9-5.4-12.7-7.7c-4.8-2.3-10-4.2-15.6-5.9c-5.6-1.6-11.4-2.8-17.4-3.6c-6-0.8-12.2-1.2-18.4-1.2
		c-1.5,0-3.2,0-4.7,0.1c-1.5,0.1-3,0.1-4.6,0.2c-1.5,0.1-3.1,0.2-4.6,0.4c-1.5,0.1-3,0.3-4.5,0.5c-3,0.4-6,0.9-8.9,1.5
		c-1.5,0.3-2.9,0.6-4.3,1c-0.7,0.2-1.4,0.4-2.1,0.5c-0.7,0.2-1.4,0.4-2.1,0.6c-5.6,1.6-10.8,3.5-15.6,5.8c-4.8,2.3-9,4.9-12.7,7.7
		c-3.6,2.8-6.6,5.8-8.9,8.8c-2.2,3-3.8,5.9-4.7,8.5c-0.5,1.3-0.8,2.4-1.1,3.5c-0.2,1-0.4,1.9-0.5,2.7c-0.2,1.5-0.3,2.3-0.3,2.3
		s0-0.8-0.1-2.3c0-0.7,0.1-1.7,0.2-2.8c0.2-1.1,0.3-2.3,0.7-3.7c0.7-2.7,1.9-6,4-9.4c1-1.7,2.3-3.4,3.7-5.1c0.7-0.8,1.5-1.7,2.3-2.5
		c0.8-0.8,1.7-1.7,2.6-2.5c0.5-0.4,0.9-0.8,1.4-1.2c0.5-0.4,1-0.8,1.5-1.2c1-0.8,2-1.6,3.1-2.3c2.1-1.5,4.5-3,6.9-4.3
		c4.9-2.7,10.3-5.1,16-6.9c5.8-1.9,11.9-3.4,18.2-4.3c1.6-0.2,3.2-0.5,4.7-0.6c0.8-0.1,1.6-0.2,2.4-0.3l2.4-0.2
		c1.6-0.1,3.2-0.2,4.9-0.3c1.6-0.1,3.1-0.1,4.8-0.1c6.4,0,12.9,0.5,19.2,1.5c6.3,0.9,12.4,2.4,18.2,4.3c5.8,1.8,11.2,4.2,16.1,6.9
		c2.4,1.3,4.8,2.8,6.9,4.3c1.1,0.8,2.1,1.5,3.1,2.3c0.5,0.4,1,0.8,1.5,1.2c0.5,0.4,0.9,0.8,1.4,1.2c1.8,1.6,3.4,3.3,4.9,5
		c1.4,1.7,2.7,3.4,3.7,5.1c2.1,3.4,3.3,6.6,4,9.4c0.4,1.4,0.5,2.6,0.7,3.7c0.1,1.1,0.1,2,0.2,2.8
		C198.2,195.7,198.2,196.5,198.2,196.5z"/>
</g>
</svg>
